General
Complete name                    : 1984.mkv
Format                           : Matroska
File size                        : 2.18 GiB
Duration                         : 1h 45mn
Overall bit rate                 : 2 941 Kbps


Video
ID                               : 1
Format                           : AVC

Codec ID                         : V_MPEG4/ISO/AVC
Duration                         : 1h 45mn
Bit rate                         : 1 978 Kbps
Nominal bit rate                 : 1 998 Kbps
Width                            : 720 pixels
Height                           : 552 pixels
Display aspect ratio             : 1.855
Frame rate                       : 25.000 fps
Resolution                       : 24 bits
Colorimetry                      : 4:2:0
Scan type                        : Progressive
Bits/(Pixel*Frame)               : 0.199
Stream size                      : 1.46 GiB (67%)
Writing library                  : x264 core 79

Audio #1
ID                               : 2
Format                           : AC-3
Format/Info                      : Audio Coding 3
Codec ID                         : A_AC3
Duration                         : 1h 45mn
Bit rate mode                    : Constant
Bit rate                         : 224 Kbps
Channel(s)                       : 2 channels
Channel positions                : L R
Sampling rate                    : 48.0 KHz
Stream size                      : 170 MiB (8%)
Language                         : English

Audio #2
ID                               : 3
Format                           : AC-3
Format/Info                      : Audio Coding 3
Codec ID                         : A_AC3
Duration                         : 1h 45mn
Bit rate mode                    : Constant
Bit rate                         : 224 Kbps
Channel(s)                       : 2 channels
Channel positions                : L R
Sampling rate                    : 48.0 KHz
Stream size                      : 170 MiB (8%)
Language                         : German

Audio #3
ID                               : 4
Format                           : AC-3
Format/Info                      : Audio Coding 3
Codec ID                         : A_AC3
Duration                         : 1h 45mn
Bit rate mode                    : Constant
Bit rate                         : 224 Kbps
Channel(s)                       : 2 channels
Channel positions                : L R
Sampling rate                    : 48.0 KHz
Stream size                      : 170 MiB (8%)
Language                         : French

Audio #4
ID                               : 5
Format                           : AC-3
Format/Info                      : Audio Coding 3
Codec ID                         : A_AC3
Duration                         : 1h 45mn
Bit rate mode                    : Constant
Bit rate                         : 224 Kbps
Channel(s)                       : 2 channels
Channel positions                : L R
Sampling rate                    : 48.0 KHz
Stream size                      : 170 MiB (8%)
Language                         : Spanish

Text #1
Language                         : English

Text #2
Language                         : German

Text #3
Language                         : French

Text #4
Language                         : Spanish

Text #5
Language                         : Dutch

Text #6
Language                         : Swedish

Text #7
Language                         : Finnish

Text #8
Language                         : Portuguese

Text #9
Language                         : Turkish